<?xml version="1.0" encoding="utf-8"?>
<!-- Generator: Adobe Illustrator 23.0.6, SVG Export Plug-In . SVG Version: 6.00 Build 0)  -->
<svg version="1.1" id="Layer_1" xmlns="http://www.w3.org/2000/svg" xmlns:xlink="http://www.w3.org/1999/xlink" x="0px" y="0px"
	 width="864px" height="864px" viewBox="0 0 864 864" enable-background="new 0 0 864 864" xml:space="preserve">
<g>
	<path d="M675.9958,425.6346c0.597-4.6891-22.897-4.739-24.299-4.739c-15.7867,0-31.5735,0-47.3603,0
		c-37.7272,0-75.4547,0-113.1819,0c-45.81,0-91.62,0-137.43,0c-39.4642,0-78.9285,0-118.3927,0c-19.2732,0-38.5491-0.0917-57.8221,0
		c-0.2705,0.0015-0.5411,0-0.8118,0c-5.6181,0-11.6587,0.2448-17.1819,1.388c-1.1488,0.2378-6.8369,1.1507-7.1171,3.351
		c-0.5969,4.6889,22.897,4.7385,24.299,4.7385c15.7867,0,31.5735,0,47.3602,0c37.7273,0,75.4545,0,113.182,0
		c45.81,0,91.62,0,137.43,0c39.4642,0,78.9285,0,118.3928,0c19.2731,0,38.549,0.0922,57.822,0c0.2706-0.001,0.5413,0,0.8118,0
		c5.6182,0,11.6587-0.2446,17.1821-1.3877C670.0276,428.7475,675.7158,427.8347,675.9958,425.6346z"/>
	<circle cx="131.0767" cy="426.6797" r="9.431"/>
	<ellipse transform="matrix(0.3827 -0.9239 0.9239 0.3827 34.0717 904.3514)" cx="693.7653" cy="426.6797" rx="9.4309" ry="9.431"/>
	<ellipse transform="matrix(0.9871 -0.1602 0.1602 0.9871 -57.5441 139.5126)" cx="836.569" cy="426.6797" rx="9.431" ry="9.4309"/>
	<path d="M738.986,430.559c26.0772,0,52.1545,0,78.2318,0c6.0602,0,3.8318-7.7585-1.3773-7.7585c-26.0771,0-52.1545,0-78.2316,0
		C731.5485,422.8004,733.7769,430.559,738.986,430.559z"/>
	<path d="M27.431,435.0655c5.2085,0,9.4309-4.2223,9.4309-9.4309s-4.2224-9.4312-9.4309-9.4312c-5.2086,0-9.431,4.2226-9.431,9.4312
		S22.2224,435.0655,27.431,435.0655z"/>
	<path d="M45.9792,429.5138c14.1537,0,28.3075,0,42.4613,0c3.2892,0,2.0798-7.7588-0.7476-7.7588c-14.1538,0-28.3076,0-42.4613,0
		C41.9424,421.755,43.1519,429.5138,45.9792,429.5138z"/>
	<path d="M222.0415,502.7471c-0.7114,0.8452-2.5219,3.54-3.6911,2.2039c-0.919-1.05,0.2748-5.0748,0.4779-6.1117
		c1.0172-5.1911,2.2813-10.3528,3.4523-15.5133c0.9979-4.398,3.2177-9.3006,2.9957-13.8472
		c-0.2424-4.966-3.2132-9.442-8.5176-9.8334c-5.1254-0.3781-10.4266,5.2319-13.1745,8.9852
		c-6.7642,9.2385-10.7019,20.9707-15.4899,31.2897c2.7689-9.1663,5.699-18.7451,6.5873-28.3138
		c0.3476-3.7437,0.8666-7.9412-2.9041-10.1255c-2.8178-1.6323-6.6481-1.6293-9.505-1.2707
		c-0.225,0.9575-1.0036,1.6644-1.4147,2.6053c-0.814,1.8623-0.678,3.7555-0.8722,5.712c-0.2293,2.3089-0.7938,4.6496-1.2162,6.9429
		c-1.2377,6.7198-2.1556,13.4939-3.1849,20.2483c-4.3822,7.1574-10.229,15.2023-17.8068,14.5689
		c-5.5364-0.4628-5.5755-7.4037-4.9881-11.5286c0.1288-0.9051,2.8885-10.4413,2.351-11.0011
		c3.0843,6.9371,11.1953,2.9213,15.0209-0.7791c4.8004-4.6433,9.3587-11.815,7.6639-18.7781
		c-1.3189-5.4189-7.7466-7.7365-12.8099-7.6664c-6.4753,0.0895-11.5695,3.9572-15.6704,8.6271
		c-6.1579,7.0121-11.1497,17.9362-11.299,27.9182c-0.431,0.7417-0.859,1.485-1.3055,2.2174
		c-1.4677,2.4078-2.9593,4.9793-4.9598,6.9812c-1.5298,1.5308-2.8164,2.5592-3.0953-0.0681
		c-0.2705-2.549,0.7987-5.8529,1.2968-8.3702c0.6584-3.3272,1.4387-6.6297,2.2381-9.9256
		c1.2896-5.3174,3.1117-10.856,3.0522-16.3853c-0.053-4.9315-1.8727-9.7294-7.4317-10.2721
		c-5.9288-0.5789-10.8811,5.3489-13.96,9.676c-6.63,9.3182-11.1633,20.3826-16.3302,30.5468
		c3.3879-13.6229,5.9534-27.5839,8.7937-41.3837c1.4959-7.2679,3.1618-14.5077,5.057-21.6826
		c1.4649-5.5459,4.5415-12.3593,4.0638-18.1552c-0.3855-4.6771-6.2983-9.542-11.2588-7.8818
		c-2.9104,0.974-3.83,9.5111-4.5912,12.4535c-2.8405,10.979-5.4668,22.0688-7.5967,33.2059
		c-2.3775,12.4324-5.2726,24.9212-6.8672,37.4937c-1.1369,1.7037-2.4653,3.3157-4.076,4.1316
		c-0.969,0.4909-3.7952,1.1597-4.5232-0.2594c-0.2508-0.4891,1.0822-2.9749,1.2227-3.3658
		c1.3444-3.7417,2.5435-7.5375,3.6193-11.3647c1.6094-5.7253,6.196-19.1342,0.7311-24.0324
		c-6.8901-6.1754-12.8296,9.0105-13.9181,13.4275c-2.0748,8.4191-1.3444,17.3022,2.4038,25.1492
		c1.2284,2.5717,2.1148,3.099,1.0571,5.9556c-0.4872,1.3161-1.0604,2.6091-1.613,3.8986c-1.3605,3.1749-2.7575,6.4756-4.5131,9.4587
		c-1.4476,2.4595-4.7976,7.6465-6.1807,2.69c-0.8873-3.1801-0.2603-7.2549-0.0106-10.4916
		c0.5745-7.4471,1.5717-14.8247,2.9327-22.166c0.8005-4.3178,1.8891-8.576,2.7521-12.8815c0.664-3.3132,2.4174-7.536,1.544-10.9274
		c-0.8926-3.4658-4.2245-4.8555-7.4987-5.2104c-0.7447-0.0807-1.8345-0.3919-2.5445-0.1494
		c-1.0702,0.3658-0.7536,0.7558-1.2674,1.8328c-0.594,1.2449-0.9638,2.7128-1.3382,4.0404
		c-1.8358,6.5091-3.852,12.9624-6.0343,19.3685c-2.3519,6.9041-4.7976,14.2859-9.3329,20.1213
		c-2.1311,2.7424-5.6499,5.183-6.6053,0.2596c-0.6697-3.4515-0.0309-7.1547,0.657-10.5448
		c1.5398-7.5874,3.8764-15.0738,4.8579-22.7725c0.3575-2.8043,0.591-6.1766-1.5524-8.3286
		c-1.9674-1.9753-8.0547-3.2949-10.4089-1.2875c-1.3697,1.1677-0.6718,3.8507-0.8529,5.4113
		c-0.189,1.629-0.6192,3.2736-0.944,4.8813c-0.9263,4.5847-1.8985,9.0839-3.1604,13.5783
		c-1.7276,6.1528-3.5996,14.3409-1.8603,20.6495c2.1062,7.6395,9.8152,7.736,16.0467,4.9595
		c6.7213-2.9949,10.3711-9.2603,13.5361-15.5902c-1.6365,5.59-1.9334,12.3575-2.248,18.1527
		c-0.3125,5.7556-0.4562,15.366,6.0836,18.0743c6.0333,2.4983,12.0469-5.7181,14.7812-9.8757
		c3.6147-5.496,6.4256-11.7355,8.3079-18.0354c2.9191,2.9489,7.1472-0.4651,9.4007-3.0266
		c-0.1985,4.7726,0.3729,9.8191,3.1775,13.6295c3.9785,5.405,8.4143,1.5864,10.8624-2.9288
		c5.8099-10.7154,9.843-22.3384,16.0608-32.8306c0.7782-1.313,7.4946-11.7558,8.6415-8.797c0.618,1.5942-1.8417,6.141-2.2698,7.6012
		c-0.9687,3.3044-1.9611,6.6039-2.8705,9.9251c-1.6318,5.9594-8.5208,30.2774,3.89,30.0423
		c5.5809-0.1055,9.7098-6.3703,12.6979-10.3651c1.2805-1.712,2.4926-3.4743,3.6624-5.2652
		c0.0547,0.3075,0.0921,0.6205,0.1586,0.9239c1.255,5.7321,4.0775,9.7632,9.7285,11.7581
		c5.1237,1.8087,10.0293,1.3747,14.8002-1.2028c4.8465-2.6186,8.5371-6.9254,11.6952-11.3709
		c-0.2587,5.2505,0.4855,11.0677,5.064,13.0421c6.6671,2.8752,10.8448-9.9747,12.7118-14.3248
		c2.9818-6.9477,6.1864-13.8018,9.6883-20.4994c1.7486-3.3438,4.0364-6.9041,6.4157-9.8384
		c1.3391-1.6516,4.3947-4.842,3.8587-0.8289c-0.7435,5.5664-3.8136,11.1529-5.2492,16.5803
		c-1.6488,6.2325-3.2784,13.7116-2.1906,20.1416c1.1212,6.6287,5.1232,12.0901,11.5614,6.9095
		c6.1269-4.9299,10.4131-12.156,14.5378-18.7345C226.922,492.5431,223.99,500.4322,222.0415,502.7471z M157.0251,482.2106
		c1.1212-2.5652,2.4503-5.1565,4.1302-7.4047c1.9475-2.6063,6.9613-7.8893,10.7413-7.1449
		c5.747,1.1319,0.7766,9.5279-1.0588,11.7811c-2.3017,3.6713-9.1094,7.6764-13.4453,7.4393
		C154.2579,486.7103,156.0942,484.3405,157.0251,482.2106z M74.474,497.426c-5.2417-7.7831-5.0398-19.3503-0.8319-27.4433
		c1.4244-2.8561,4.2598-2.3209,5.247,0.3478c0.828,2.2384,0.3656,5.187,0.1057,7.4713
		C78.2344,484.4851,76.4516,491.0153,74.474,497.426z"/>
	<path d="M387.4743,518.7363c0-5.2304,2.4942-11.2321,3.6377-16.3202c1.1378-5.0628,2.0981-10.1661,3.0824-15.2605
		c0.9265-4.7951,2.2085-9.7058,2.7455-14.5571c0.6345-5.7331-0.9545-9.5627-7.0745-10.7247
		c-1.0948-0.2077-3.875-0.8342-4.7433-0.0253c-1.1133,1.0369-1.24,4.6365-1.5465,6.0544
		c-1.174,5.4316-2.5355,10.8317-3.4812,16.3217c-0.7296,4.2361-1.0737,8.7448-2.3109,12.8744
		c-1.0968,3.6608-5.1702,7.6836-8.7094,9.2678c-7.8298,3.5044-2.5465-12.8867-1.7184-16.3691
		c1.2767-5.3685,2.8241-10.6725,4.0053-16.0659c0.8004-3.6542,1.9597-8.4146-0.416-11.7463
		c-1.6451-2.3073-9.0042-6.2568-11.4093-3.6096c-0.8844,0.9735-1.0063,4.3386-1.2969,5.5907
		c-1.0977,4.7323-2.1762,9.4695-3.2934,14.197c-0.6957,2.9438-1.429,5.9649-2.0052,9.017c-0.7178-0.121-1.1706,0.1594-1.9532,1.4178
		c-1.2255,1.9708-2.3282,4.0384-3.5075,6.0475c-3.6208,6.1689-7.3034,12.3725-11.5945,18.1049
		c-2.118,2.8293-9.2223,11.4817-7.9693,2.7451c0.8248-5.7504,2.08-11.4917,3.3817-17.1418
		c1.3063-5.6697,2.7252-11.3173,4.3145-16.9151c1.3963-4.9177,3.8175-10.5127,3.0303-15.7368
		c-0.8076-5.3607-6.9617-9.274-12.1688-7.7575c-5.7013,1.6601-10.3194,7.6102-13.4822,12.3061
		c-3.2407,4.8114-5.5809,10.338-8.0298,15.5807c-2.604,5.5742-5.2983,11.097-7.6152,16.8003
		c2.7015-9.9729,6.1378-20.1609,7.2408-30.4786c0.5072-4.7443,0.7592-9.9527-4.2158-12.2302
		c-3.3217-1.5208-6.8053-0.4109-9.8859-1.0562c-2.844,8.5318-6.0855,17.1579-9.9481,25.2843
		c-2.0579,4.3293-4.2709,8.612-6.499,12.8559c-0.7831,1.4915-4.188,9.2625-5.9022,9.2625c-0.9145,0,2.7922-15.9882,3.0694-17.2882
		c1.2895-6.0476,3.6633-13.3621,3.2837-19.569c-0.2484-4.059-6.6797-9.1568-10.962-8.1545
		c-4.2856,1.0031-2.6461,8.8223-3.1947,11.9097c-1.6501,9.2861-3.6467,18.6639-4.1487,28.0976
		c-0.2548,4.7904,0.5102,14.2344,7.3233,14.0695c5.45-0.132,9.5119-8.9089,11.9315-12.8326
		c3.3591-5.4471,6.0145-11.399,8.6475-17.2205c1.9659-4.3466,4.932-9.3578,5.8806-14.0439
		c-2.0751,10.0965-4.2471,20.1914-5.6009,30.4067c-0.4724,3.5645-0.9158,7.6468,1.3618,10.7587
		c3.2977,4.5063,7.3,2.2021,10.2218-1.2356c10.2668-12.0791,14.297-28.3151,24.188-40.6801
		c1.0706-1.3386,5.0661-6.0323,4.7569-1.8483c-0.1911,2.5855-1.8544,5.806-2.6762,8.2514
		c-2.3351,6.9474-3.7271,14.2815-5.2759,21.4271c-1.2263,5.6569-2.4235,11.4381-2.8582,17.2043
		c-0.4601,6.1055,2.0605,16.9078,10.6515,13.4227c8.0159-3.2518,13.8858-13.5145,18.2189-20.4761
		c3.1841-5.1156,6.249-10.342,9.1565-15.6373c-0.4227,4.2987-0.2954,8.606,0.9487,12.8008c1.4056,4.739,4.9164,7.7147,9.881,8.3827
		c5.07,0.6824,9.4825-2.6584,12.6827-6.2884c-0.6337,3.1809-0.859,6.4655-1.3519,9.6723c-0.1431,0.9316-0.1066,3.1518-0.7279,3.9451
		c-0.7499,0.9575-3.4072,1.9062-4.4695,2.7028c-5.011,3.7582-9.7939,8.4727-12.6811,14.0854
		c-2.8247,5.491-6.1212,14.6571-0.9363,19.8031c4.3904,4.3574,12.6445,3.1147,17.1-0.416
		c5.4711-4.3356,8.2721-11.3223,10.2796-17.7876c1.1022-3.5497,1.9667-7.1684,2.7027-10.8111
		c0.308-1.524,0.3203-3.4656,0.9076-4.8879c0.6916-1.6749,0.0931-1.817,2.3004-1.5714c6.5833,0.7322,10.5421,6.011,9.3301,12.5522
		c-0.4926,2.6584-1.7444,5.6957-3.8872,7.4553c-0.6257,0.514-5.0673,2.9772-5.7795,2.265
		c7.817,7.817,15.1471-2.9396,15.3069-10.4871C403.9174,525.0041,396.3672,519.0908,387.4743,518.7363z M371.8814,531.9913
		c-0.3456,2.1096-0.6448,4.2291-0.9883,6.3405c-0.7853,4.827-1.7611,9.9655-5.3522,13.5653
		c-1.7647,2.3369-5.8847,3.6786-7.4406,0.5463c-1.317-2.6511-0.2784-6.6752,0.5959-9.3079
		c2.4057-7.2441,7.8751-13.5202,14.4331-17.3298C372.2132,526.6852,372.0874,530.7352,371.8814,531.9913z"/>
	<path d="M387.4743,518.7363C390.9385,518.8743,387.4743,518.4584,387.4743,518.7363L387.4743,518.7363z"/>
	<path d="M487.4772,504.9101c0.0471-0.0549,0.0907-0.1138,0.1375-0.1692c-0.0903,0.1045-0.1855,0.2145-0.261,0.3027
		C487.394,504.9986,487.4376,504.9555,487.4772,504.9101z"/>
	<path d="M524.2772,477.3623c-0.0378,0.1727-0.0732,0.3458-0.1107,0.5187C524.0119,478.6503,524.7659,475.4649,524.2772,477.3623z"
		/>
	<path d="M522.5399,514.5598c-0.0112-0.0632-0.0193-0.1258-0.0307-0.189C522.3321,513.6652,522.5526,514.6931,522.5399,514.5598z"/>
	<path d="M555.6715,477.3623c-0.0378,0.1727-0.0733,0.3458-0.1108,0.5187C555.4061,478.6503,556.1601,475.4649,555.6715,477.3623z"
		/>
	<path d="M553.9341,514.5598c-0.0112-0.0632-0.0193-0.1258-0.0307-0.189C553.7263,513.6652,553.9468,514.6931,553.9341,514.5598z"/>
	<path d="M638.653,502.167c-2.7916,3.6723-6.382,7.3626-11.1094,8.2437c-6.2661,1.1677-7.8357-3.1944-7.46-8.6053
		c0.1897-2.7316,0.8545-5.3602,1.4951-8.0169c0.1965-0.8149,1.5078-4.0121,1.5613-5.5048c0.6833,2.2066,4.8309,3.2764,6.534,3.2639
		c3.3934-0.0251,6.2124-2.3452,8.5582-4.5739c5.0775-4.8242,10.6632-13.6284,6.8784-20.7202
		c-5.0612-9.4836-19.0883-5.5825-25.4043-0.013c-7.213,6.3603-11.4796,15.718-13.2015,24.948
		c-0.3391,1.8172-0.6639,3.6593-0.8459,5.502c-4.3114,6.8928-9.9692,14.202-17.2054,13.5971
		c-5.5363-0.4628-5.5756-7.4037-4.9881-11.5286c0.129-0.9051,2.8884-10.4413,2.351-11.0011
		c3.0843,6.9371,11.1954,2.9213,15.0208-0.7791c4.8004-4.6433,9.3589-11.815,7.6641-18.7781
		c-1.319-5.4189-7.7468-7.7365-12.8099-7.6664c-6.4754,0.0895-11.5695,3.9572-15.6705,8.6271
		c-5.5624,6.3342-10.1817,15.8629-11.1337,25.0039c-1.4285,1.7741-3.0822,3.2776-4.9971,4.0269
		c-1.7637,0.6901-3.674,0.5172-5.4747,0.0699c-1.1978-0.2977-2.3562-0.7658-3.4783-1.2715
		c-0.8828-0.4074-1.7473-0.8512-2.593-1.3313c0.189-0.3513,0.378-0.7024,0.5671-1.0537c0.3666-2.2011,3.1821-5.0731,4.4403-6.8539
		c1.5341-2.1713,3.019-4.3108,4.3774-6.6008c2.6356-4.4426,5.3562-9.0135,7.308-13.8066
		c2.4861-6.1054,6.8532-19.9814-4.0195-20.4628c-9.7904-0.4335-15.8044,10.7219-19.1322,18.2284
		c-4.2557,9.5991-7.0709,19.802-9.339,30.1418c-1.2012,1.2882-2.543,2.351-4.0502,2.9406c-1.7639,0.6901-3.674,0.5172-5.4749,0.0699
		c-1.1978-0.2977-2.3562-0.7658-3.4782-1.2715c-0.8829-0.4074-1.7474-0.8512-2.5931-1.3313
		c0.1889-0.3513,0.3781-0.7024,0.5671-1.0537c0.3666-2.2011,3.1821-5.0731,4.4403-6.8539c1.5341-2.1713,3.019-4.3108,4.3776-6.6008
		c2.6356-4.4426,5.3561-9.0135,7.3079-13.8066c2.4861-6.1054,6.8531-19.9814-4.0195-20.4628
		c-9.7903-0.4335-15.8044,10.7219-19.1323,18.2284c-2.847,6.4217-5.0461,13.1147-6.8727,19.9369
		c-2.2085,1.5471-4.6447,2.7852-7.0424,3.1273c0.7289-6.4327,2.2072-13.4417-1.7808-19.1894
		c-1.8953-2.7316-4.5644-4.3195-7.9395-4.3035c-1.62,0.0078-2.4725,0.4726-3.7427-0.1042c-3.0479-1.384-4.4959-3.8214-8.5877-3.8116
		c-6.123,0.0143-11.4619,5.9388-14.6464,10.6036c-4.0474,5.9283-7.2578,14.4509-7.529,22.6176
		c-3.7927,5.5855-8.7517,11.1209-13.977,14.3033c-2.7559,1.6784-6.0858,2.2663-8.3166-0.5588
		c-2.6773-3.3907-1.3437-9.1187-0.7328-12.9556c1.3906-8.7333,4.6784-18.5599,11.8165-24.3326
		c1.5414-1.2464,8.2592-5.1069,8.8051-1.5326c0.3181,2.0833-2.5655,4.2817-4.0994,5.2304
		c-0.3701,0.2288-3.9508,1.8841-3.9508,1.3506c-0.158,2.8539,2.1595,4.9781,4.9673,4.3594
		c2.6332-0.5804,4.5651-3.6575,5.5327-5.9824c2.1307-5.1201,0.7881-10.0088-4.649-11.926
		c-22.9341-8.0865-37.8853,26.5011-31.6734,44.2126c3.8932,11.0998,16.8582,12.1001,25.1945,5.4642
		c4.2117-3.3525,7.7727-7.4949,10.7652-11.9523c0.1804-0.2686,0.3516-0.5578,0.525-0.8424c0.5523,4.4015,2.1442,8.51,5.1476,11.8147
		c4.682,5.1517,11.7139,6.6274,18.2868,4.8044c7.4828-2.0753,12.5907-7.5215,16.1479-14.194
		c0.9727-1.8245,1.7378-3.6976,2.4117-5.6487c0.6574-1.9032,0.5565-2.4547,2.1401-3.3428c1.8734-1.0509,3.8732-1.6573,5.7615-2.6526
		c-2.5571,10.5122-4.37,21.2569-6.3805,31.738c-1.6784,8.7493-3.6257,17.8941-3.2556,26.8517
		c0.1716,4.1539,1.0001,8.8726,4.8508,11.2399c3.9561,2.4319,8.1628-0.7264,11.1791-3.3964
		c7.5854-6.7144,12.3698-16.978,13.7748-26.881c0.7258-5.1156,0.4116-10.1837-0.6547-15.2336
		c-0.7956-3.7683-1.7977-8.8468-3.9761-12.1312c5.4222,2.4497,9.8079,1.6012,13.3798-0.9582
		c-1.387,6.8572-2.6051,13.7379-3.9039,20.5089c-1.6784,8.7493-3.6257,17.8941-3.2556,26.8517
		c0.1716,4.1539,1.0001,8.8726,4.8506,11.2399c3.9562,2.4319,8.163-0.7264,11.1791-3.3964
		c7.5854-6.7144,12.3699-16.978,13.7748-26.881c0.726-5.1156,0.4116-10.1837-0.6545-15.2336
		c-0.7956-3.7683-1.7977-8.8468-3.9763-12.1312c6.4781,2.9266,11.478,1.1492,15.3752-2.6361
		c0.0767,1.3749,0.2421,2.7278,0.5292,4.0391c1.2551,5.7321,4.0775,9.7632,9.7285,11.7581
		c5.1237,1.8087,10.0294,1.3747,14.8002-1.2028c4.9272-2.6622,8.662-7.0684,11.8547-11.5924
		c0.163,1.2787,0.4576,2.5459,0.9354,3.7923c2.4623,6.4209,8.473,9.8063,15.1464,10.1493
		c12.864,0.6618,20.5644-12.507,26.332-22.0001c-0.2079-0.0844-0.3785-0.1273-0.5319-0.1531
		C643.416,492.91,640.5529,499.6677,638.653,502.167z M635.2415,469.3261c2.2555-1.501,6.1469-2.774,7.2314,0.7607
		c0.9681,3.1553-1.6834,7.0805-3.5348,9.3553c-2.4159,3.8695-10.7916,9.0283-15.4898,7.0695
		C625.7491,479.6093,629.0776,473.4279,635.2415,469.3261z M587.7009,482.2106c1.1212-2.5652,2.4502-5.1565,4.1301-7.4047
		c1.9475-2.6063,6.9613-7.8893,10.7413-7.1449c5.747,1.1319,0.7767,9.5279-1.0588,11.7811
		c-2.3017,3.6713-9.1094,7.6764-13.4453,7.4393C584.9338,486.7103,586.7698,484.3405,587.7009,482.2106z M555.5607,477.881
		c0.0203-0.1007,0.0544-0.2616,0.1108-0.5187c1.5805-6.1367,3.0646-12.2971,5.3003-18.2404
		c0.7675-2.0403,1.6396-5.4394,4.1193-6.0451c2.3098-0.5641,2.9098,1.0482,3.027,3.0736
		c0.3289,5.6797-3.6264,12.8354-6.1062,17.7813c-2.5097,5.0062-5.145,11.4857-9.1491,15.49
		C553.9881,485.632,554.7253,481.7417,555.5607,477.881z M524.1665,477.881c0.0203-0.1007,0.0544-0.2616,0.1107-0.5187
		c1.5806-6.1367,3.0646-12.2971,5.3004-18.2404c0.7675-2.0403,1.6395-5.4394,4.1193-6.0451
		c2.3099-0.5641,2.9098,1.0482,3.027,3.0736c0.3289,5.6797-3.6265,12.8354-6.1061,17.7813
		c-2.5097,5.0062-5.1451,11.4857-9.1493,15.49C522.5938,485.632,523.3311,481.7417,524.1665,477.881z M487.6146,504.741
		c0.2612-0.3017,0.4593-0.5275-0.1375,0.1692c-0.3453,0.3947-0.2854,0.322-0.1235,0.1335
		c-3.4049,3.8086-8.7762,6.4505-11.9238,1.0805c-2.4887-4.2458-2.8871-9.5607-2.5532-14.3864
		c0.3453-4.9886,2.0233-10.2927,3.8412-14.9465c1.036-2.6522,4.4903-8.2637,7.9522-8.2637
		c-8.1542,8.5519-5.013,27.1872,9.3551,25.3637C492.404,497.7239,490.3095,501.5483,487.6146,504.741z M495.4802,487.3941
		c0,3.4232-6.4564-0.3132-7.7668-1.7628c-2.513-2.7797-2.8593-6.4994-1.678-9.9684c1.3887-4.0785,5.6684-3.4648,8.0231-0.3203
		C496.657,478.8127,495.4802,483.4339,495.4802,487.3941z M522.5092,514.3708c0.0209,0.1155,0.0284,0.1649,0.0307,0.189
		c1.7013,9.5828,0.5401,19.2537-4.0473,27.9179c-0.8863,1.6739-5.2679,9.5655-7.2108,6.475
		c-1.5802-2.5134,0.3268-8.8511,0.6701-11.5278c1.463-11.4091,3.9885-22.7489,6.5023-33.97
		C520.5972,506.8875,521.5319,510.4748,522.5092,514.3708z M553.9034,514.3708c0.0209,0.1155,0.0284,0.1649,0.0307,0.189
		c1.7013,9.5828,0.5401,19.2537-4.0473,27.9179c-0.8863,1.6739-5.2679,9.5655-7.2108,6.475
		c-1.5802-2.5134,0.3268-8.8511,0.67-11.5278c1.463-11.4091,3.9885-22.7489,6.5023-33.97
		C551.9915,506.8875,552.9261,510.4748,553.9034,514.3708z"/>
	<path d="M713.6751,508.0747c-0.0543-0.0085-0.2789,0.0108-0.3746,0.0298c0.0551,0.0143,0.1101,0.0288,0.1711,0.0288
		C713.5398,508.1211,713.6072,508.0912,713.6751,508.0747z"/>
	<path d="M754.9471,504.9101c0.0397-0.0464,0.0764-0.096,0.116-0.1426c-0.0769,0.089-0.1561,0.1807-0.2222,0.2576
		C754.8754,504.9863,754.9128,504.9492,754.9471,504.9101z"/>
	<path d="M838.0646,470.5946c-0.713-2.0087-1.5532-4.3714-0.6713-6.4625c0.5415-1.2842,3.7986-3.0396,3.7191-4.1679
		c-0.1536-2.1838-4.2225-2.6559-5.6389-2.5878c-2.5603,0.1238-4.4194,1.2374-6.2787,2.9068
		c-4.0197,3.6091-6.2133,8.7528-8.7044,13.4415c-2.54,4.7809-5.3276,9.4277-7.8867,14.2033
		c-1.8296,3.4142-2.4828,4.3225-1.6133,7.3771c-4.409,7.2571-10.338,15.6278-18.0602,14.9826
		c-5.5366-0.4628-5.5757-7.404-4.988-11.5286c0.1264-0.8881,2.8772-10.4628,2.3499-11.0011
		c3.0843,6.9371,11.1963,2.9213,15.0215-0.7791c4.7993-4.6425,9.3602-11.8162,7.6639-18.7781
		c-1.3203-5.4189-7.7449-7.7362-12.8093-7.6664c-6.4763,0.0895-11.5689,3.9567-15.6705,8.6271
		c-3.6429,4.1484-6.8747,9.669-8.9445,15.5507c-2.3293,1.7007-4.9404,3.0959-7.5077,3.4618
		c0.7378-6.4275,2.2036-13.4493-1.7793-19.1894c-1.8918-2.7263-4.5615-4.3088-7.9403-4.3035
		c-1.7953,0.0027-2.4963,0.4543-3.8978-0.2087c-3.1711-1.4998-4.8118-4.0617-9.1536-3.7247
		c-6.0008,0.4661-11.2313,6.5159-14.2847,11.1697c-3.9592,6.0348-7.1398,14.8553-7.1838,23.1569
		c-0.45,0.9224-0.8308,1.7092-1.0707,2.0923c-1.7891,2.8559-5.3148,9.9968-9.0602,10.9081
		c0.0348,0.0055-0.0013,0.0221-0.2035,0.0587c-0.2437,0-0.2447-0.014-0.1711-0.0288c-2.3099-0.5981,0.3538-13.429,0.5347-14.5511
		c1.7055-10.5756,3.4811-21.1712,5.6917-31.6534c2.2089-10.4741,4.7669-20.854,7.6373-31.1657
		c1.577-5.6642,4.2473-13.3047-2.1487-17.0837c-1.6089-0.9505-4.9608-2.1355-6.8148-1.4667
		c-1.6658,0.6009-1.8856,3.2017-2.4344,5.0079c-1.5186,4.9973-2.8704,10.0448-4.1163,15.1166
		c-2.7432,11.1667-5.3324,22.4354-7.3508,33.7565c-1.3644,7.6526-2.7435,15.3031-4.0613,22.9639
		c-0.4103,2.385-0.4652,4.9986-1.118,7.3c-1.0146,3.5773-5.1491,7.6693-8.0828,10.0862c-4.9702,4.0945-6.8244,1.0089-6.4382-4.2526
		c0.3754-5.1106,1.4689-10.3671,3.0285-15.2419c1.5619-4.8818,3.7166-9.8752,6.9584-13.8893
		c2.5405-3.1456,6.1404-4.6007,8.9063-7.311c-5.7036-8.9531-17.7591-2.4209-22.4537,3.8464
		c-5.2357,6.9895-8.6443,15.9436-9.4583,24.6225c-0.8585,9.1568,2.4344,19.5074,13.316,19.9489
		c7.2156,0.2927,10.1466-6.0097,13.7104-11.0991c0.7189,7.9054,6.7565,20.2516,15.5367,11.8681
		c4.1061-3.9209,6.8889-9.3322,9.8724-14.1078c0.0801-0.1283,0.1588-0.2574,0.2388-0.3857c0.7676,4.2065,2.5623,8.064,5.753,11.0717
		c11.5784,10.9141,27.3546,1.4667,33.6026-10.2361c1.2685-2.3755,2.0596-7.3957,3.9741-8.8501
		c0.9868-0.7497,3.3082-1.0745,4.4906-1.6638c0.7076-0.3523,1.3922-0.7495,2.061-1.1717
		c-1.0655,4.6448-1.3097,9.3437-0.3714,13.6319c1.2541,5.7306,4.0798,9.764,9.7286,11.7581
		c5.1239,1.8087,10.0293,1.3747,14.8002-1.2028c5.0146-2.7093,8.7969-7.2235,12.0267-11.8315
		c2.6329-3.756,4.4343-9.3903,7.6244-12.6021c-0.8075-0.1576-1.6502-0.3556-2.4539-0.5976
		c2.8066-5.1324,5.6091-10.2854,8.6915-15.2024c1.0918,4.0181,3.3598,7.85,5.2493,11.5378c0.9326,1.82,2.0699,3.4285,2.5463,5.4577
		c0.0733,0.3122,0.062,4.6578,0.2073,4.7305c-2.1865-5.9922-6.6478-5.1936-11.2262-2.1841
		c-4.4315,2.9133-7.3796,7.0073-8.4514,12.237c-2.5587,12.4853,13.0807,11.4572,21.2551,9.493
		c0.28-0.0613,0.6796-0.1626,1.2311-0.3155c0.8342-0.4106,1.195-0.6266,1.2647-0.7166c8.8863-5.3317,11.4604-17.5606,8.6621-27.097
		C843.2776,481.0624,840.0139,476.0863,838.0646,470.5946z M792.1763,482.2106c1.1214-2.5655,2.4506-5.1562,4.1309-7.4047
		c1.9481-2.6066,6.9607-7.8893,10.7416-7.1449c5.7467,1.1316,0.7756,9.5276-1.0583,11.7811
		c-2.3016,3.6713-9.1102,7.6758-13.4456,7.4393C789.4091,486.7105,791.2449,484.3413,792.1763,482.2106z M755.063,504.7675
		c0.2724-0.3147,0.4999-0.5748-0.116,0.1426c-0.3569,0.4082-0.2812,0.318-0.1063,0.115c-3.4024,3.8219-8.7877,6.4753-11.9406,1.0991
		c-2.4893-4.2449-2.8857-9.5617-2.5522-14.3864c0.3447-4.9891,2.024-10.2919,3.8409-14.9465
		c1.0352-2.6519,4.4905-8.2637,7.9523-8.2637c-8.155,8.5526-5.0121,27.1872,9.3565,25.3637
		C759.87,497.7324,757.7717,501.5726,755.063,504.7675z M762.9528,487.3941c0,3.4242-6.4594-0.3147-7.7687-1.7628
		c-2.5128-2.779-2.8593-6.4998-1.6777-9.9684c1.3892-4.0785,5.6693-3.4651,8.0241-0.3203
		C764.1282,478.8117,762.9528,483.4349,762.9528,487.3941z M829.0674,502.1043c-1.9746,3.2894-4.7409,6.8041-8.6276,7.8999
		c-5.7108,1.6102-4.1366-4.2456-2.0084-7.1339c2.4916-3.3816,6.1626-6.3806,10.4385-6.9727
		c-0.3618,0.0411-0.637,0.0694,0.1974-0.0311c0.4896-0.0514,0.3741-0.0356,0.126-0.0063
		C833.9259,495.4386,830.4694,499.7684,829.0674,502.1043z"/>
	<path d="M829.0674,495.8666c-0.0664,0.008-0.1313,0.0221-0.1974,0.0311c0.1099-0.0123,0.226-0.0258,0.3235-0.0373
		C829.1481,495.8643,829.1143,495.8618,829.0674,495.8666z"/>
	<path d="M18.5805,384.9066c1.0221,5.7506,8.2435,7.4052,10.3461,1.2925c1.637-4.7591,0.688-11.5914,0.7162-16.5988
		c0.048-8.5203,0.0316-17.0416-0.0054-25.5619c-0.0521-11.9836,0.8923-24.7909-0.71-36.7504
		c0.0317,0.1704,0.0176,0.0218-0.1314-0.9943c-0.0262-0.1175-0.0318-0.1163-0.0267-0.0556
		c-0.6209-2.0876-8.5366-0.7467-9.4959,0.2641c-1.6653,1.7546-1.1256,5.0828-1.1555,7.299
		c-0.0975,7.2108-0.0012,14.4301-0.026,21.6421c-0.0373,10.8252-0.025,21.6534,0.0331,32.4783
		C18.1546,373.4207,17.6122,379.4582,18.5805,384.9066z"/>
	<path d="M68.7547,364.2894c1.2156,5.6278,6.4853,35.3945,17.2865,25.6617c4.7226-4.2556,6.8172-13.4776,8.7358-19.2207
		c1.5527-4.6478,3.0881-9.3452,4.1926-14.1241c1.578,9.7041,3.7584,22.0262,8.6608,30.6119
		c1.8809,3.2944,4.7999,2.9554,8.2298,2.9296c6.1925-0.0469,6.88-8.5584,8.444-13.6069c5.0588-16.33,8.3923-33.0283,10.6125-49.9651
		c0.6858-5.2317,1.9651-11.1655,1.3608-16.4623c-0.0583-0.5097-3.0367-7.6127-3.6469-6.0791
		c0,17.1429-2.8291,34.1015-6.2223,50.8705c-0.8615,4.2574-1.7721,8.5121-2.85,12.7206c-0.7799,3.0448-1.4216,8.8624-3.536,11.2677
		c-2.0767,2.3625-2.5712,0.3626-3.3373-1.7714c-1.0432-2.9063-1.8004-5.9338-2.6073-8.9115
		c-1.3508-4.9854-1.7541-11.3088-4.5174-15.7581c-1.7951-2.8902-5.6592-3.429-8.9195-2.8862
		c-2.5803,0.4295-2.6671,0.6703-3.7103,3.3701c-2.4721,6.3984-4.1292,13.2275-6.2951,19.7384
		c-1.0513,3.1601-4.2831,14.6794-7.3662,6.1739c-3.0331-8.3675-3.1082-18.5256-4.4351-27.3659
		c-1.6436-10.9507-3.3409-21.8924-5.0313-32.8351c-0.6376-4.1276-0.7369-11.9047-5.2823-13.3049
		c-0.8727-0.2689-6.5163-0.6991-7.2992,0.1774c-0.5929,0.6638,0.1153,3.8099,0.1703,4.5433
		C62.7519,328.2065,64.9103,346.4933,68.7547,364.2894z"/>
	<path d="M141.0881,384.9066c1.0221,5.7506,8.2435,7.4052,10.3462,1.2925c1.6371-4.7591,0.688-11.5914,0.7163-16.5988
		c0.0481-8.5203,0.0316-17.0416-0.0055-25.5619c-0.0521-11.9836,0.8923-24.7909-0.7099-36.7504
		c0.0317,0.1704,0.0175,0.0218-0.1313-0.9943c-0.0263-0.1175-0.032-0.1163-0.0268-0.0556
		c-0.6212-2.0876-8.5366-0.7467-9.4958,0.2641c-1.6654,1.7546-1.1256,5.0828-1.1556,7.299
		c-0.0976,7.2108-0.0011,14.4301-0.0259,21.6421c-0.0373,10.8252-0.0251,21.6534,0.0331,32.4783
		C140.6622,373.4207,140.1198,379.4582,141.0881,384.9066z"/>
	<path d="M158.8261,385.3609c0.6236,3.7563,2.1979,4.3571,5.8068,4.5491c5.4835,0.2914,11.0254,0.1396,16.5169,0.1173
		c5.1164-0.0208,10.2358-0.0987,15.3504-0.2358c1.3276-0.0353,4.2624,0.343,5.4457-0.2904
		c0.9685-0.5185,3.3601-2.1234,0.6204-3.0406c-3.3275-1.9941-11.7839-0.1812-15.4554-0.0572
		c-6.0345,0.204-12.0473,0.1762-18.0853,0.1762c2.0688-7.8034,0.877-17.4741,0.9748-25.4529
		c0.1249-10.1799,0.2144-20.3648,0.2144-30.5455c0-4.5523,0.0091-9.1047,0.0189-13.6568c0.0055-2.5539,0.8502-7.3849-0.3756-9.7975
		c-1.2301-2.4204-7.091-3.1273-9.3574-1.5992c-2.3699,1.598-1.3901,10.1503-1.4846,12.8647
		c-0.3711,10.6558-0.5708,21.3188-0.6999,31.9799c-0.102,8.4211-0.2313,16.8542-0.0346,25.275
		C158.3564,378.8513,158.3017,382.2026,158.8261,385.3609z"/>
	<path d="M202.5663,386.4605C203.0434,386.6203,202.1693,386.2227,202.5663,386.4605L202.5663,386.4605z"/>
	<path d="M205.5697,385.3609c0.6235,3.7563,2.1979,4.3571,5.8067,4.5491c5.4834,0.2914,11.0254,0.1396,16.5169,0.1173
		c5.1164-0.0208,10.2358-0.0987,15.3504-0.2358c1.3276-0.0353,4.2623,0.343,5.4457-0.2904
		c0.9684-0.5185,3.3601-2.1234,0.6205-3.0406c-3.3275-1.9941-11.7839-0.1812-15.4557-0.0572
		c-6.0344,0.204-12.0471,0.1762-18.0852,0.1762c2.0688-7.8034,0.877-17.4741,0.9749-25.4529
		c0.1248-10.1799,0.2142-20.3648,0.2142-30.5455c0-4.5523,0.0092-9.1047,0.0191-13.6568c0.0055-2.5539,0.8502-7.3849-0.3757-9.7975
		c-1.23-2.4204-7.0909-3.1273-9.3574-1.5992c-2.3699,1.598-1.39,10.1503-1.4845,12.8647c-0.3712,10.6558-0.571,21.3188-0.7,31.9799
		c-0.1019,8.4211-0.2313,16.8542-0.0346,25.275C205.0999,378.8513,205.0453,382.2026,205.5697,385.3609z"/>
	<path d="M249.31,386.4605C249.7869,386.6203,248.913,386.2227,249.31,386.4605L249.31,386.4605z"/>
	<path d="M315.678,352.5624C318.373,355.9723,303.9422,337.6552,315.678,352.5624L315.678,352.5624z"/>
	<path d="M315.0305,385.9984c9.2896-8.8087,8.2704-23.791,0.6475-33.436c-7.1802-9.1207-17.2822-19.9737-20.6949-31.401
		c-1.6133-5.4023,0.0366-13.643,6.8988-13.7968c6.2134-0.1391,6.8194,4.6769,10.2284,8.0881
		c4.4745,4.4771,1.7116-4.9435-0.3181-7.0291c-3.2639-3.3538-8.9876-4.6505-13.494-4.0133
		c-15.9927,2.261-13.3816,20.8903-7.9471,31.1865c6.4618,12.2422,36.6728,42.6269,11.505,51.4346
		c-12.7737,4.4704-21.2416-6.0601-19.9285-17.8467c0.0698-0.627,0.8446-3.3022,0.5068-3.8958
		c-2.0443-3.5913-3.1719,1.189-3.3984,3.0346c-0.7305,5.9493-0.5096,12.0179,3.6292,16.7216
		C290.2526,393.668,306.8225,393.7815,315.0305,385.9984z"/>
	<path d="M326.2294,308.6729c4.3156,0.9347,9.7448,0,14.1879,0c-1.4549,5.8193-0.2378,13.0844-0.2378,19.0668
		c0,4.828-0.0173,9.6549-0.0484,14.4829c-0.0687,10.6315-0.1045,21.2624,0.008,31.8941c0.0403,3.8149-0.9755,11.3554,1.6002,14.4173
		c1.3542,1.6097,3.2202,1.6945,5.2199,1.2569c3.2468-0.7104,3.82-2.5442,4.2336-5.5762
		c1.7287-12.6732,0.3709-26.2954,0.2867-39.0267c-0.0802-12.1365,0.2303-24.4027-0.7134-36.5152c3.3656,0,6.731,0,10.0966,0
		c1.4822,0,3.6364,0.4338,5.0484,0c1.3865-0.426,3.87-2.9737,0.5551-2.9737c-10.573,0-21.1427-0.2165-31.7223-0.1233
		c-2.7144,0.0241-6.1408-0.538-8.7585,0.1173C322.8336,306.482,323.308,308.0401,326.2294,308.6729z"/>
	<path d="M372.0339,387.006c3.6013,3.1025,9.733,5.3069,14.2728,2.8592c6.101-3.2894,8.3078-12.6138,9.8948-18.7479
		c0.2338,5.2237,0.7808,12.1841,4.5466,16.2545c1.9701,2.1295,6.5783,4.2093,7.259,0.4566
		c0.4524-2.4943-1.5732-7.4363-1.7625-10.2313c-0.2963-4.3714-0.3581-8.7636-0.1992-13.1413
		c0.5861-16.1546,3.259-32.9115,1.2185-49.0032c-0.268-2.2558-2.357-13.0253-6.5624-10.5398
		c-2.2733,1.3439-1.7749,7.4182-1.8836,9.6775c-0.22,4.5686-0.4643,9.1393-0.7137,13.7076
		c-1.3301-12.4078-8.162-33.3433-23.4475-19.3046c-10.4676,9.6139-11.2478,28.1585-11.4931,41.4474
		C362.9444,362.3098,362.1162,378.4616,372.0339,387.006z M379.0486,313.7629c1.2098-3.5518,3.5583-8.9659,8.1799-6.5262
		c6.0707,3.2045,7.7073,14.0111,8.4633,19.989c2.062,16.3069,1.8894,34.206-3.6525,49.8389
		c-1.3456,3.8492-4.6843,13.1857-9.9434,8.3146c-4.6338-4.2917-5.3011-14.4995-6.0384-20.3614
		C374.0189,348.8124,373.7227,329.3978,379.0486,313.7629z"/>
	<path d="M407.2638,315.4526C407.817,319.8145,406.7079,310.7745,407.2638,315.4526L407.2638,315.4526z"/>
	<path d="M414.5193,376.3094c0,2.3279-0.5885,5.6115,0,7.8911c0.873,3.3821,7.9981,7.9587,9.9837,4.6155
		c1.6809-2.8298,0.5295-10.2057,0.6142-13.3901c0.1245-4.6774,0.2122-9.3557,0.2902-14.0341
		c0.0585-3.5117-0.0102-2.6983,2.8048-3.8635c1.9691-0.8152,4.093-1.1787,6.0506-2.1111c1.83,5.1234,4.8698,10.021,7.2621,14.9157
		c1.8714,3.8289,3.7465,7.648,5.7489,11.4115c0.7755,1.4574,3.2492,7.9918,5.1937,8.1392c3.716,0.2816,0.6545-4.6105,0.0269-5.8817
		c-2.05-4.1526-4.1618-8.2782-6.3573-12.3557c-3.1115-5.7794-6.361-11.6614-8.7812-17.7756
		c13.2042-7.9933,20.8898-25.8739,13.8827-40.7036c-3.1116-6.5853-10.3524-10.3125-16.976-6.1581
		c-5.7661,3.6164-7.1851,11.0883-8.4446,17.2454c0-7.4002,2.3533-14.7463-5.463-18.3036c-3.0209-1.3747-5.726-2.5472-6.5276,1.3178
		c-0.3377,1.6281,0.2401,3.9369,0.3244,5.6439C415.193,333.9732,414.5193,355.2216,414.5193,376.3094z M425.5801,346.2582
		c1.1609-9.463,2.4075-19.0783,5.0885-28.2544c1.2991-4.4466,4.1466-12.919,8.6755-6.1087
		c4.4349,6.669,3.3053,17.3183,1.3708,24.6112c-2.2126,8.3422-7.2288,14.3849-15.2537,17.7209
		C425.5009,351.5709,425.5404,348.9147,425.5801,346.2582z"/>
	<path d="M437.3559,353.8705C437.5135,354.2686,440.3676,352.0472,437.3559,353.8705L437.3559,353.8705z"/>
	<path d="M458.0156,308.6729c4.3155,0.9347,9.7448,0,14.1879,0c-1.4549,5.8193-0.2378,13.0844-0.2378,19.0668
		c0,4.828-0.0173,9.6549-0.0483,14.4829c-0.0687,10.6315-0.1046,21.2624,0.008,31.8941c0.0403,3.8149-0.9755,11.3554,1.6002,14.4173
		c1.3542,1.6097,3.2202,1.6945,5.2199,1.2569c3.2468-0.7104,3.82-2.5442,4.2336-5.5762
		c1.7285-12.6732,0.3709-26.2954,0.2867-39.0267c-0.0802-12.1365,0.2303-24.4027-0.7134-36.5152c3.3654,0,6.731,0,10.0965,0
		c1.4823,0,3.6364,0.4338,5.0484,0c1.3866-0.426,3.8701-2.9737,0.5551-2.9737c-10.5729,0-21.1426-0.2165-31.7223-0.1233
		c-2.7144,0.0241-6.1408-0.538-8.7586,0.1173C454.6198,306.482,455.0941,308.0401,458.0156,308.6729z"/>
	<path d="M534.5229,364.2894c1.2157,5.6278,6.4852,35.3945,17.2866,25.6617c4.7226-4.2556,6.8171-13.4776,8.7358-19.2207
		c1.5526-4.6478,3.0881-9.3452,4.1925-14.1241c1.5781,9.7041,3.7585,22.0262,8.6609,30.6119
		c1.881,3.2944,4.7999,2.9554,8.2299,2.9296c6.1924-0.0469,6.88-8.5584,8.444-13.6069c5.0589-16.33,8.3924-33.0283,10.6125-49.9651
		c0.6857-5.2317,1.9651-11.1655,1.3607-16.4623c-0.0581-0.5097-3.0367-7.6127-3.6469-6.0791
		c0,17.1429-2.8289,34.1015-6.2222,50.8705c-0.8615,4.2574-1.7722,8.5121-2.85,12.7206c-0.7798,3.0448-1.4217,8.8624-3.5359,11.2677
		c-2.0768,2.3625-2.5712,0.3626-3.3373-1.7714c-1.0433-2.9063-1.8004-5.9338-2.6073-8.9115
		c-1.3508-4.9854-1.7541-11.3088-4.5173-15.7581c-1.7952-2.8902-5.6591-3.429-8.9196-2.8862
		c-2.5801,0.4295-2.6671,0.6703-3.7102,3.3701c-2.472,6.3984-4.1292,13.2275-6.2952,19.7384
		c-1.0512,3.1601-4.2831,14.6794-7.3661,6.1739c-3.0331-8.3675-3.1083-18.5256-4.4351-27.3659
		c-1.6438-10.9507-3.341-21.8924-5.0314-32.8351c-0.6375-4.1276-0.7368-11.9047-5.2823-13.3049
		c-0.8726-0.2689-6.5164-0.6991-7.2992,0.1774c-0.5929,0.6638,0.1152,3.8099,0.1703,4.5433
		C528.5203,328.2065,530.6786,346.4933,534.5229,364.2894z"/>
	<path d="M632.037,385.1063c8.6008-14.6273,8.5276-34.4526,7.544-50.8074c-0.5012-8.3319-1.5709-31.2161-13.9454-31.2161
		c-19.1498,0-21.7416,30.3691-22.23,43.7134c-0.398,10.8768-1.1094,23.2265,3.4976,33.3037
		C611.6865,390.5623,625.0974,396.9088,632.037,385.1063z M619.3333,313.5289c1.1825-3.7617,3.5862-9.9707,8.5867-7.3631
		c6.1357,3.1997,7.8022,14.0214,8.5822,20.0712c2.137,16.575,1.9841,34.8398-3.4481,50.8006
		c0.723-2.0646,1.4624-4.1637-0.1631,0.5027c-0.7302,2.0693-0.7192,2.0277-0.4446,1.2376
		c-1.6095,4.3664-4.9139,11.8255-9.8068,7.2837c-4.711-4.3727-5.4042-14.8232-6.1624-20.7956
		C614.387,348.7994,614.3093,329.5113,619.3333,313.5289z"/>
	<path d="M632.8911,377.5402c0.0579-0.1659,0.1064-0.336,0.1631-0.5027c-0.2303,0.6583-0.4578,1.3093-0.6077,1.7403
		C632.6129,378.3268,632.7611,377.9086,632.8911,377.5402z"/>
	<path d="M646.0952,376.3094c0,2.3279-0.5884,5.6115,0,7.8911c0.8733,3.3821,7.9984,7.9587,9.9839,4.6155
		c1.6807-2.8298,0.5295-10.2057,0.6142-13.3901c0.1243-4.6774,0.2122-9.3557,0.2902-14.0341
		c0.0584-3.5117-0.0103-2.6983,2.8046-3.8635c1.9693-0.8152,4.0931-1.1787,6.0505-2.1111c1.83,5.1234,4.8699,10.021,7.2623,14.9157
		c1.8715,3.8289,3.7466,7.648,5.749,11.4115c0.7753,1.4574,3.2491,7.9918,5.1936,8.1392c3.7159,0.2816,0.6545-4.6105,0.0269-5.8817
		c-2.0501-4.1526-4.1618-8.2782-6.3571-12.3557c-3.1116-5.7794-6.3611-11.6614-8.7813-17.7756
		c13.2043-7.9933,20.89-25.8739,13.8826-40.7036c-3.1115-6.5853-10.3525-10.3125-16.976-6.1581
		c-5.7662,3.6164-7.1852,11.0883-8.4446,17.2454c0-7.4002,2.3535-14.7463-5.463-18.3036c-3.0208-1.3747-5.7261-2.5472-6.5275,1.3178
		c-0.3376,1.6281,0.2399,3.9369,0.3243,5.6439C646.769,333.9732,646.0952,355.2216,646.0952,376.3094z M657.1562,346.2582
		c1.1609-9.463,2.4076-19.0783,5.0886-28.2544c1.299-4.4466,4.1467-12.919,8.6754-6.1087c4.4351,6.669,3.3054,17.3183,1.371,24.6112
		c-2.2128,8.3422-7.2289,14.3849-15.2538,17.7209C657.0769,351.5709,657.1166,348.9147,657.1562,346.2582z"/>
	<path d="M668.9319,353.8705C669.0897,354.2686,671.9435,352.0472,668.9319,353.8705L668.9319,353.8705z"/>
	<path d="M696.9406,390.3853c5.4095-0.0183,3.6258-6.8206,3.6281-10.8234c0.0033-5.363-0.7437-11.4286,0.0938-16.7279
		c0.6618-4.1883,4.4664-8.0006,6.9238-11.5799c8.4975,11.7167,15.8871,24.1446,24.0214,36.1079
		c1.5467,2.2748,5.8782,5.1425,4.0896,0.4365c-1.1462-3.0158-4.3405-6.2856-6.1103-8.9944
		c-2.9171-4.4649-5.8168-8.9408-8.5599-13.5154c-1.5629-2.4018-3.1032-4.8182-4.6611-7.2233
		c-1.6065-2.4803-5.0262-5.8935-5.6877-8.7148c-0.3218-1.3727-0.56-0.6232-0.2972-2.1111c0.4935-2.7943,4.7482-6.9675,6.3365-9.3069
		c4.0411-5.9529,8.1317-11.8821,12.0037-17.9467c1.7708-2.7734,6.5096-7.95,6.7294-11.4015
		c0.1176-1.8458-1.4774-4.2073-3.4816-3.5989c-1.0369,0.3147-2.4252,2.8141-3.0433,3.5984
		c-4.1166,5.2237-8.1151,10.5643-12.067,15.9135c-3.6316,4.9154-7.0063,10.017-10.5464,14.9989
		c-1.7183,2.4181-3.4263,5.6662-5.7435,7.5944c0-5.7591-0.2478-11.5143-0.2368-17.2774c0.0143-7.3824,3.5412-22.804-7.1376-24.4709
		c-3.9082-0.6099-2.8489,3.023-2.8381,6.2621c0.0173,5.161,0.0316,10.322,0.0383,15.4827c0.0082,6.436,0.0605,12.877-0.046,19.3124
		c-0.1653,9.9905-0.4007,19.9729-0.3892,29.9664C689.9664,382.4514,688.2457,390.4152,696.9406,390.3853z"/>
	<path d="M739.2373,384.9066c1.0219,5.7506,8.2434,7.4052,10.346,1.2925c1.6371-4.7591,0.688-11.5914,0.7162-16.5988
		c0.0481-8.5203,0.0316-17.0416-0.0054-25.5619c-0.052-11.9836,0.8923-24.7909-0.71-36.7504
		c0.0318,0.1704,0.0176,0.0218-0.1313-0.9943c-0.0263-0.1175-0.0318-0.1163-0.0267-0.0556
		c-0.6208-2.0876-8.5366-0.7467-9.496,0.2641c-1.6652,1.7546-1.1255,5.0828-1.1554,7.299
		c-0.0975,7.2108-0.0013,14.4301-0.0261,21.6421c-0.0372,10.8252-0.025,21.6534,0.0331,32.4783
		C738.8113,373.4207,738.2689,379.4582,739.2373,384.9066z"/>
	<path d="M758.2274,347.8705c0.1652,8.2106,0.1,16.4212,0.2055,24.6323c0.0508,3.97-1.0017,10.746,0.6128,14.4912
		c1.218,2.8251,8.8532,5.2284,11.4025,2.9468c1.3833-1.2381,0.8899-3.9745,0.8899-5.6802c0-3.966,0.1121-7.9252,0.3135-11.8861
		c0.8783-17.2619,4.5397-33.6354,10.0331-49.9872c0.6901-2.0545,2.4828-10.4024,4.8844-11.281
		c2.6594-0.9733,2.0321,7.0058,2.0444,8.6744c0.1003,13.6615-0.9877,27.3591-1.1143,41.0291
		c-0.065,7.0173-0.335,14.0998,0.0688,21.1114c0.1808,3.1403,0.5443,5.0164,3.3281,6.6941c2.0009,1.2058,6.121,2.7817,8.0588,0.6355
		c1.9589-2.17,0.6678-8.0665,0.6197-10.6475c-0.0767-4.1198-0.1228-8.2419-0.1704-12.3622
		c-0.0684-5.9143,0.004-11.8135,0.2408-17.7227c0.4716-11.7593,3.0735-27.3822-1.6678-38.595
		c0.364,0.8184,0.6205,1.3845-0.1158-0.2992c-0.807-1.7959-0.5114-1.1166-0.1253-0.2441c-2.3081-4.7708-7.573-5.7203-12.1054-3.1816
		c-3.3234,1.8613-4.7214,5.149-5.9521,8.5409c-4.2015,11.5812-6.973,23.6763-9.6499,35.6819
		c-0.3193-8.9713-0.639-17.9427-0.988-26.9131c-0.1327-3.4074,1.086-11.4045-0.5579-14.3596
		c-1.1844-2.129-8.2122-4.717-10.4662-3.5675c-2.8447,1.4503-0.9467,10.1333-0.7957,13.3568
		C757.6724,328.5774,758.0336,338.222,758.2274,347.8705z"/>
	<path d="M838.4627,383.0701c2.0383-3.6663,11.3364-35.7935,5.8008-35.8576c0.0792-0.0017,0.0873-0.0027-0.0153-0.0027
		c-1.2542,0.0165-15.3398-0.6355-10.7799,2.8251c1.7454,1.3246,7.2336,0.2674,9.3528,0.2674c0,6.8657-1.0715,13.9953-2.717,20.65
		c-1.0881,4.3995-2.9842,13.2513-7.7305,15.2823c-10.0361,4.2947-12.7599-23.0759-13.1833-28.3193
		c-0.7939-9.8321-0.2061-19.5417,1.193-29.2763c0.8459-5.886,1.5485-20.0193,8.7968-22.2232
		c2.0709-0.6295,3.8958,0.1729,5.4905,1.5213c1.9151,1.6195,2.8454,6.1658,4.5814,7.1589c2.2352,1.2785,1.843-1.5328,1.5406-2.6284
		c-0.5818-2.1074-2.5836-4.5132-4.162-5.9438c-9.5125-8.6203-21.8437,4.8588-24.99,13.5332
		c-3.5427,9.7677-4.9162,20.7465-4.7401,31.0785c0.1898,11.1474,0.6547,23.9116,8.163,32.9133
		C822.2767,392.6965,832.8122,393.2347,838.4627,383.0701z"/>
</g>
</svg>
